<svg width="460" height="460" version="1.1" xmlns="http://www.w3.org/2000/svg" desc="Created with imagetracer.js version 1.2.6" ><path fill="rgb(0,1,2)" stroke="rgb(0,1,2)" stroke-width="1" opacity="0" d="M 0 0 L 16 0.5 L 5 6.5 L 0.5 16 L 0 0 Z " /><path fill="rgb(0,1,2)" stroke="rgb(0,1,2)" stroke-width="1" opacity="0" d="M 444.5 0 L 460 0 L 460 15.5 L 459 15.5 L 453.5 5 L 444.5 1 L 444.5 0 Z " /><path fill="rgb(0,1,2)" stroke="rgb(0,1,2)" stroke-width="1" opacity="0" d="M 0.5 304 L 6 335.5 L 14 353.5 L 14 357.5 L 21 368.5 L 23 374.5 L 43.5 402 L 46 403.5 L 51.5 411 L 58 415.5 L 61.5 420 L 63.5 420 L 70.5 427 L 85.5 437 L 91.5 439 L 102.5 446 L 106.5 446 L 113.5 450 L 128.5 455 L 134.5 455 L 138.5 457 L 157 459.5 L 0 460 L 0.5 304 Z " /><path fill="rgb(0,1,2)" stroke="rgb(0,1,2)" stroke-width="1" opacity="0" d="M 459.5 444 L 460 460 L 444 459.5 L 455 453.5 L 459.5 444 Z " /><path fill="rgb(74,133,209)" stroke="rgb(74,133,209)" stroke-width="1" opacity="0.996078431372549" d="M 16.5 0 L 23 0.5 L 16.5 1 L 9.5 5 L 10.5 3 L 16.5 0 Z " /><path fill="rgb(74,133,209)" stroke="rgb(74,133,209)" stroke-width="1" opacity="0.996078431372549" d="M 437.5 0 L 443.5 0 L 451 4.5 L 449.5 5 L 443.5 1 L 437.5 1 L 437.5 0 Z " /><path fill="rgb(74,133,209)" stroke="rgb(74,133,209)" stroke-width="1" opacity="0.996078431372549" d="M 6.5 5 L 8 5.5 L 5 7.5 L 6.5 5 Z " /><path fill="rgb(74,133,209)" stroke="rgb(74,133,209)" stroke-width="1" opacity="0.996078431372549" d="M 452.5 5 L 455 6.5 L 454.5 8 L 452.5 5 Z " /><path fill="rgb(74,133,209)" stroke="rgb(74,133,209)" stroke-width="1" opacity="0.996078431372549" d="M 4.5 9 L 5 10.5 Q 0 14 0.5 23 L 0 16.5 L 4.5 9 Z " /><path fill="rgb(74,133,209)" stroke="rgb(74,133,209)" stroke-width="1" opacity="0.996078431372549" d="M 455.5 9 L 460 16.5 L 460 22.5 L 459 22.5 L 459 16.5 L 455 10.5 L 455.5 9 Z " /><path fill="rgb(74,133,209)" stroke="rgb(74,133,209)" stroke-width="1" opacity="0.996078431372549" d="M 0.5 286 L 1 303.5 L 5 324.5 L 4 324.5 L 0 303.5 L 0.5 286 Z " /><path fill="rgb(74,133,209)" stroke="rgb(74,133,209)" stroke-width="1" opacity="0.996078431372549" d="M 5.5 329 L 14 352.5 L 13 352.5 L 6 335.5 L 5.5 329 Z " /><path fill="rgb(74,133,209)" stroke="rgb(74,133,209)" stroke-width="1" opacity="0.996078431372549" d="M 14.5 355 L 22 367.5 L 24 373.5 L 37 393 L 40 394.5 L 39.5 396 L 33 389.5 L 23 374.5 L 21 368.5 L 14 357.5 L 14.5 355 Z " /><path fill="rgb(74,133,209)" stroke="rgb(74,133,209)" stroke-width="1" opacity="0.996078431372549" d="M 40.5 397 L 53.5 411 L 63 419.5 L 61.5 420 L 55.5 413 L 49 408.5 L 44.5 402 L 40 398.5 L 40.5 397 Z " /><path fill="rgb(74,133,209)" stroke="rgb(74,133,209)" stroke-width="1" opacity="0.996078431372549" d="M 64.5 420 L 67 421.5 Q 66.3 423.8 68.5 423 L 86.5 436 L 92.5 438 L 105 445.5 L 102.5 446 L 70.5 427 L 64.5 420 Z " /><path fill="rgb(74,133,209)" stroke="rgb(74,133,209)" stroke-width="1" opacity="0.996078431372549" d="M 459.5 437 L 460 443.5 L 455.5 451 L 455 449.5 Q 460 446 459.5 437 Z " /><path fill="rgb(74,133,209)" stroke="rgb(74,133,209)" stroke-width="1" opacity="0.996078431372549" d="M 107.5 446 L 131 454.5 L 128.5 455 L 113.5 450 L 107.5 447 L 107.5 446 Z " /><path fill="rgb(74,133,209)" stroke="rgb(74,133,209)" stroke-width="1" opacity="0.996078431372549" d="M 454.5 452 L 455 453.5 L 452.5 455 L 454.5 452 Z " /><path fill="rgb(74,133,209)" stroke="rgb(74,133,209)" stroke-width="1" opacity="0.996078431372549" d="M 135.5 455 L 157.5 459 L 173 459.5 L 157.5 460 L 156.5 459 L 138.5 457 L 135.5 456 L 135.5 455 Z " /><path fill="rgb(74,133,209)" stroke="rgb(74,133,209)" stroke-width="1" opacity="0.996078431372549" d="M 449.5 455 L 451 455.5 L 443.5 460 L 438.5 460 L 438.5 459 L 443.5 459 L 449.5 455 Z " /><path fill="rgb(216,229,245)" stroke="rgb(216,229,245)" stroke-width="1" opacity="1" d="M 225.5 50 L 226 53.5 L 225 53.5 L 225.5 50 Z " /><path fill="rgb(216,229,245)" stroke="rgb(216,229,245)" stroke-width="1" opacity="1" d="M 411.5 50 L 412 53.5 L 411 53.5 L 411.5 50 Z " /><path fill="rgb(216,229,245)" stroke="rgb(216,229,245)" stroke-width="1" opacity="1" d="M 278.5 76 L 279 78.5 L 278 78.5 L 278.5 76 Z " /><path fill="rgb(216,229,245)" stroke="rgb(216,229,245)" stroke-width="1" opacity="1" d="M 358.5 76 L 359 78.5 L 358 78.5 L 358.5 76 Z " /><path fill="rgb(216,229,245)" stroke="rgb(216,229,245)" stroke-width="1" opacity="1" d="M 234.5 84 L 235 86.5 L 234 86.5 L 234.5 84 Z " /><path fill="rgb(216,229,245)" stroke="rgb(216,229,245)" stroke-width="1" opacity="1" d="M 402.5 84 L 403 86.5 L 402 86.5 L 402.5 84 Z " /><path fill="rgb(216,229,245)" stroke="rgb(216,229,245)" stroke-width="1" opacity="1" d="M 287.5 109 L 288 111.5 L 287 111.5 L 287.5 109 Z " /><path fill="rgb(216,229,245)" stroke="rgb(216,229,245)" stroke-width="1" opacity="1" d="M 349.5 109 L 350 111.5 L 349 111.5 L 349.5 109 Z " /><path fill="rgb(216,229,245)" stroke="rgb(216,229,245)" stroke-width="1" opacity="1" d="M 243.5 117 L 244 119.5 L 243 119.5 L 243.5 117 Z " /><path fill="rgb(216,229,245)" stroke="rgb(216,229,245)" stroke-width="1" opacity="1" d="M 393.5 117 L 394 119.5 L 393 119.5 L 393.5 117 Z " /><path fill="rgb(216,229,245)" stroke="rgb(216,229,245)" stroke-width="1" opacity="1" d="M 296.5 142 L 297 145.5 L 296 145.5 L 296.5 142 Z " /><path fill="rgb(216,229,245)" stroke="rgb(216,229,245)" stroke-width="1" opacity="1" d="M 340.5 142 L 341 145.5 L 340 145.5 L 340.5 142 Z " /><path fill="rgb(216,229,245)" stroke="rgb(216,229,245)" stroke-width="1" opacity="1" d="M 252.5 150 L 253 153.5 L 252 153.5 L 252.5 150 Z " /><path fill="rgb(216,229,245)" stroke="rgb(216,229,245)" stroke-width="1" opacity="1" d="M 384.5 150 L 385 153.5 L 384 153.5 L 384.5 150 Z " /><path fill="rgb(216,229,245)" stroke="rgb(216,229,245)" stroke-width="1" opacity="1" d="M 163.5 158 L 171 158.5 L 163.5 159 L 163.5 158 Z " /><path fill="rgb(216,229,245)" stroke="rgb(216,229,245)" stroke-width="1" opacity="1" d="M 178.5 158 L 186 158.5 L 178.5 159 L 178.5 158 Z " /><path fill="rgb(216,229,245)" stroke="rgb(216,229,245)" stroke-width="1" opacity="1" d="M 155.5 159 L 158 159.5 L 155.5 160 L 155.5 159 Z " /><path fill="rgb(216,229,245)" stroke="rgb(216,229,245)" stroke-width="1" opacity="1" d="M 190.5 159 L 193 159.5 L 190.5 160 L 190.5 159 Z " /><path fill="rgb(216,229,245)" stroke="rgb(216,229,245)" stroke-width="1" opacity="1" d="M 150.5 160 L 153 160.5 L 150.5 161 L 150.5 160 Z " /><path fill="rgb(216,229,245)" stroke="rgb(216,229,245)" stroke-width="1" opacity="1" d="M 196.5 160 L 199 160.5 L 196.5 161 L 196.5 160 Z " /><path fill="rgb(216,229,245)" stroke="rgb(216,229,245)" stroke-width="1" opacity="1" d="M 137.5 163 L 140 163.5 L 137.5 164 L 137.5 163 Z " /><path fill="rgb(216,229,245)" stroke="rgb(216,229,245)" stroke-width="1" opacity="1" d="M 208.5 163 L 212 163.5 L 208.5 164 L 208.5 163 Z " /><path fill="rgb(216,229,245)" stroke="rgb(216,229,245)" stroke-width="1" opacity="1" d="M 112.5 173 L 110.5 176 L 112.5 173 Z " /><path fill="rgb(216,229,245)" stroke="rgb(216,229,245)" stroke-width="1" opacity="1" d="M 235.5 173 L 236.5 175 L 235.5 173 Z " /><path fill="rgb(216,229,245)" stroke="rgb(216,229,245)" stroke-width="1" opacity="1" d="M 305.5 175 L 306 178.5 L 305 178.5 L 305.5 175 Z " /><path fill="rgb(216,229,245)" stroke="rgb(216,229,245)" stroke-width="1" opacity="1" d="M 331.5 175 L 332 178.5 L 331 178.5 L 331.5 175 Z " /><path fill="rgb(216,229,245)" stroke="rgb(216,229,245)" stroke-width="1" opacity="1" d="M 240.5 176 L 241.5 178 L 240.5 176 Z " /><path fill="rgb(216,229,245)" stroke="rgb(216,229,245)" stroke-width="1" opacity="1" d="M 103.5 179 L 101.5 182 L 103.5 179 Z " /><path fill="rgb(216,229,245)" stroke="rgb(216,229,245)" stroke-width="1" opacity="1" d="M 244.5 179 L 245.5 181 L 244.5 179 Z " /><path fill="rgb(216,229,245)" stroke="rgb(216,229,245)" stroke-width="1" opacity="1" d="M 97.5 183 L 95.5 186 L 97.5 183 Z " /><path fill="rgb(216,229,245)" stroke="rgb(216,229,245)" stroke-width="1" opacity="1" d="M 375.5 183 L 376 186.5 L 375 186.5 L 375.5 183 Z " /><path fill="rgb(216,229,245)" stroke="rgb(216,229,245)" stroke-width="1" opacity="1" d="M 255.5 187 L 257.5 190 L 255.5 187 Z " /><path fill="rgb(216,229,245)" stroke="rgb(216,229,245)" stroke-width="1" opacity="1" d="M 92.5 188 L 91.5 190 L 92.5 188 Z " /><path fill="rgb(216,229,245)" stroke="rgb(216,229,245)" stroke-width="1" opacity="1" d="M 259.5 190 L 260.5 192 L 259.5 190 Z " /><path fill="rgb(216,229,245)" stroke="rgb(216,229,245)" stroke-width="1" opacity="1" d="M 78.5 201 L 76.5 204 L 78.5 201 Z " /><path fill="rgb(216,229,245)" stroke="rgb(216,229,245)" stroke-width="1" opacity="1" d="M 163.5 205 L 166 205.5 L 163.5 206 L 163.5 205 Z " /><path fill="rgb(216,229,245)" stroke="rgb(216,229,245)" stroke-width="1" opacity="1" d="M 182.5 205 L 186 205.5 L 182.5 206 L 182.5 205 Z " /><path fill="rgb(216,229,245)" stroke="rgb(216,229,245)" stroke-width="1" opacity="1" d="M 151.5 207 L 154 207.5 L 151.5 208 L 151.5 207 Z " /><path fill="rgb(216,229,245)" stroke="rgb(216,229,245)" stroke-width="1" opacity="1" d="M 194.5 207 L 198 207.5 L 194.5 208 L 194.5 207 Z " /><path fill="rgb(216,229,245)" stroke="rgb(216,229,245)" stroke-width="1" opacity="1" d="M 314.5 208 L 315 211.5 L 314 211.5 L 314.5 208 Z " /><path fill="rgb(216,229,245)" stroke="rgb(216,229,245)" stroke-width="1" opacity="1" d="M 322.5 208 L 323 211.5 L 322 211.5 L 322.5 208 Z " /><path fill="rgb(216,229,245)" stroke="rgb(216,229,245)" stroke-width="1" opacity="1" d="M 71.5 210 L 70.5 212 L 71.5 210 Z " /><path fill="rgb(216,229,245)" stroke="rgb(216,229,245)" stroke-width="1" opacity="1" d="M 207.5 211 L 208.5 213 L 207.5 211 Z " /><path fill="rgb(216,229,245)" stroke="rgb(216,229,245)" stroke-width="1" opacity="1" d="M 137.5 213 L 136.5 215 L 137.5 213 Z " /><path fill="rgb(216,229,245)" stroke="rgb(216,229,245)" stroke-width="1" opacity="1" d="M 367.5 214 L 368 216.5 L 367 216.5 L 367.5 214 Z " /><path fill="rgb(216,229,245)" stroke="rgb(216,229,245)" stroke-width="1" opacity="1" d="M 129.5 217 L 126.5 221 L 129.5 217 Z " /><path fill="rgb(216,229,245)" stroke="rgb(216,229,245)" stroke-width="1" opacity="1" d="M 218.5 217 L 219.5 219 L 218.5 217 Z " /><path fill="rgb(216,229,245)" stroke="rgb(216,229,245)" stroke-width="1" opacity="1" d="M 221.5 219 L 222.5 221 L 221.5 219 Z " /><path fill="rgb(216,229,245)" stroke="rgb(216,229,245)" stroke-width="1" opacity="1" d="M 123.5 222 L 121.5 225 L 123.5 222 Z " /><path fill="rgb(216,229,245)" stroke="rgb(216,229,245)" stroke-width="1" opacity="1" d="M 63.5 223 L 62.5 225 L 63.5 223 Z " /><path fill="rgb(216,229,245)" stroke="rgb(216,229,245)" stroke-width="1" opacity="1" d="M 225.5 223 L 226.5 225 L 225.5 223 Z " /><path fill="rgb(216,229,245)" stroke="rgb(216,229,245)" stroke-width="1" opacity="1" d="M 113.5 232 L 110.5 236 L 113.5 232 Z " /><path fill="rgb(216,229,245)" stroke="rgb(216,229,245)" stroke-width="1" opacity="1" d="M 235.5 233 L 236.5 235 L 235.5 233 Z " /><path fill="rgb(216,229,245)" stroke="rgb(216,229,245)" stroke-width="1" opacity="1" d="M 109.5 237 L 108.5 239 L 109.5 237 Z " /><path fill="rgb(216,229,245)" stroke="rgb(216,229,245)" stroke-width="1" opacity="1" d="M 239.5 237 L 240.5 239 L 239.5 237 Z " /><path fill="rgb(216,229,245)" stroke="rgb(216,229,245)" stroke-width="1" opacity="1" d="M 107.5 240 L 106.5 242 L 107.5 240 Z " /><path fill="rgb(216,229,245)" stroke="rgb(216,229,245)" stroke-width="1" opacity="1" d="M 241.5 240 L 242.5 242 L 241.5 240 Z " /><path fill="rgb(216,229,245)" stroke="rgb(216,229,245)" stroke-width="1" opacity="1" d="M 358.5 246 L 359 249.5 L 358 249.5 L 358.5 246 Z " /><path fill="rgb(216,229,245)" stroke="rgb(216,229,245)" stroke-width="1" opacity="1" d="M 247.5 251 L 248.5 253 L 247.5 251 Z " /><path fill="rgb(216,229,245)" stroke="rgb(216,229,245)" stroke-width="1" opacity="1" d="M 252.5 262 L 253 265.5 L 252 265.5 L 252.5 262 Z " /><path fill="rgb(216,229,245)" stroke="rgb(216,229,245)" stroke-width="1" opacity="1" d="M 48.5 263 L 49 268.5 L 48 268.5 L 48.5 263 Z " /><path fill="rgb(216,229,245)" stroke="rgb(216,229,245)" stroke-width="1" opacity="1" d="M 47.5 274 L 48 281.5 L 47 281.5 L 47.5 274 Z " /><path fill="rgb(216,229,245)" stroke="rgb(216,229,245)" stroke-width="1" opacity="1" d="M 93.5 274 L 94 277.5 L 93 277.5 L 93.5 274 Z " /><path fill="rgb(216,229,245)" stroke="rgb(216,229,245)" stroke-width="1" opacity="1" d="M 254.5 274 L 255 277.5 L 254 277.5 L 254.5 274 Z " /><path fill="rgb(216,229,245)" stroke="rgb(216,229,245)" stroke-width="1" opacity="1" d="M 349.5 279 L 350 282.5 L 349 282.5 L 349.5 279 Z " /><path fill="rgb(216,229,245)" stroke="rgb(216,229,245)" stroke-width="1" opacity="1" d="M 47.5 289 L 48 296.5 L 47 296.5 L 47.5 289 Z " /><path fill="rgb(216,229,245)" stroke="rgb(216,229,245)" stroke-width="1" opacity="1" d="M 301.5 289 L 302 296.5 L 301 296.5 L 301.5 289 Z " /><path fill="rgb(216,229,245)" stroke="rgb(216,229,245)" stroke-width="1" opacity="1" d="M 93.5 293 L 94 296.5 L 93 296.5 L 93.5 293 Z " /><path fill="rgb(216,229,245)" stroke="rgb(216,229,245)" stroke-width="1" opacity="1" d="M 254.5 293 L 255 296.5 L 254 296.5 L 254.5 293 Z " /><path fill="rgb(216,229,245)" stroke="rgb(216,229,245)" stroke-width="1" opacity="1" d="M 300.5 301 L 301 304.5 L 300 304.5 L 300.5 301 Z " /><path fill="rgb(216,229,245)" stroke="rgb(216,229,245)" stroke-width="1" opacity="1" d="M 48.5 302 L 49 307.5 L 48 307.5 L 48.5 302 Z " /><path fill="rgb(216,229,245)" stroke="rgb(216,229,245)" stroke-width="1" opacity="1" d="M 252.5 306 L 253 308.5 L 252 308.5 L 252.5 306 Z " /><path fill="rgb(216,229,245)" stroke="rgb(216,229,245)" stroke-width="1" opacity="1" d="M 299.5 307 L 300 309.5 L 299 309.5 L 299.5 307 Z " /><path fill="rgb(216,229,245)" stroke="rgb(216,229,245)" stroke-width="1" opacity="1" d="M 98.5 314 L 100 316.5 L 99 316.5 L 98.5 314 Z " /><path fill="rgb(216,229,245)" stroke="rgb(216,229,245)" stroke-width="1" opacity="1" d="M 250.5 314 L 250 315.5 L 249.5 317 L 249 315.5 L 250.5 314 Z " /><path fill="rgb(216,229,245)" stroke="rgb(216,229,245)" stroke-width="1" opacity="1" d="M 296.5 320 L 297 322.5 L 296 322.5 L 296.5 320 Z " /><path fill="rgb(216,229,245)" stroke="rgb(216,229,245)" stroke-width="1" opacity="1" d="M 246.5 322 L 245.5 324 L 246.5 322 Z " /><path fill="rgb(216,229,245)" stroke="rgb(216,229,245)" stroke-width="1" opacity="1" d="M 106.5 330 L 109.5 334 L 106.5 330 Z " /><path fill="rgb(216,229,245)" stroke="rgb(216,229,245)" stroke-width="1" opacity="1" d="M 242.5 330 L 241.5 332 L 242.5 330 Z " /><path fill="rgb(216,229,245)" stroke="rgb(216,229,245)" stroke-width="1" opacity="1" d="M 239.5 333 L 238.5 335 L 239.5 333 Z " /><path fill="rgb(216,229,245)" stroke="rgb(216,229,245)" stroke-width="1" opacity="1" d="M 57.5 335 L 58 337.5 L 57 337.5 L 57.5 335 Z " /><path fill="rgb(216,229,245)" stroke="rgb(216,229,245)" stroke-width="1" opacity="1" d="M 111.5 337 L 114.5 341 L 111.5 337 Z " /><path fill="rgb(216,229,245)" stroke="rgb(216,229,245)" stroke-width="1" opacity="1" d="M 236.5 337 L 235.5 339 L 236.5 337 Z " /><path fill="rgb(216,229,245)" stroke="rgb(216,229,245)" stroke-width="1" opacity="1" d="M 119.5 345 L 122.5 349 L 119.5 345 Z " /><path fill="rgb(216,229,245)" stroke="rgb(216,229,245)" stroke-width="1" opacity="1" d="M 227.5 346 L 224.5 350 L 227.5 346 Z " /><path fill="rgb(216,229,245)" stroke="rgb(216,229,245)" stroke-width="1" opacity="1" d="M 62.5 347 L 64.5 350 L 62.5 347 Z " /><path fill="rgb(216,229,245)" stroke="rgb(216,229,245)" stroke-width="1" opacity="1" d="M 285.5 348 L 284.5 350 L 285.5 348 Z " /><path fill="rgb(216,229,245)" stroke="rgb(216,229,245)" stroke-width="1" opacity="1" d="M 126.5 350 L 129.5 354 L 126.5 350 Z " /><path fill="rgb(216,229,245)" stroke="rgb(216,229,245)" stroke-width="1" opacity="1" d="M 222.5 350 L 221.5 352 L 222.5 350 Z " /><path fill="rgb(216,229,245)" stroke="rgb(216,229,245)" stroke-width="1" opacity="1" d="M 283.5 351 L 282.5 353 L 283.5 351 Z " /><path fill="rgb(216,229,245)" stroke="rgb(216,229,245)" stroke-width="1" opacity="1" d="M 219.5 352 L 218.5 354 L 219.5 352 Z " /><path fill="rgb(216,229,245)" stroke="rgb(216,229,245)" stroke-width="1" opacity="1" d="M 281.5 354 L 280.5 356 L 281.5 354 Z " /><path fill="rgb(216,229,245)" stroke="rgb(216,229,245)" stroke-width="1" opacity="1" d="M 133.5 355 L 134.5 357 L 133.5 355 Z " /><path fill="rgb(216,229,245)" stroke="rgb(216,229,245)" stroke-width="1" opacity="1" d="M 215.5 355 L 214.5 357 L 215.5 355 Z " /><path fill="rgb(216,229,245)" stroke="rgb(216,229,245)" stroke-width="1" opacity="1" d="M 68.5 357 L 71.5 361 L 68.5 357 Z " /><path fill="rgb(216,229,245)" stroke="rgb(216,229,245)" stroke-width="1" opacity="1" d="M 279.5 357 L 278.5 359 L 279.5 357 Z " /><path fill="rgb(216,229,245)" stroke="rgb(216,229,245)" stroke-width="1" opacity="1" d="M 144.5 360 L 145.5 362 L 144.5 360 Z " /><path fill="rgb(216,229,245)" stroke="rgb(216,229,245)" stroke-width="1" opacity="1" d="M 73.5 363 L 74.5 365 L 73.5 363 Z " /><path fill="rgb(216,229,245)" stroke="rgb(216,229,245)" stroke-width="1" opacity="1" d="M 275.5 363 L 274.5 365 L 275.5 363 Z " /><path fill="rgb(216,229,245)" stroke="rgb(216,229,245)" stroke-width="1" opacity="1" d="M 75.5 366 L 79.5 371 L 75.5 366 Z " /><path fill="rgb(216,229,245)" stroke="rgb(216,229,245)" stroke-width="1" opacity="1" d="M 163.5 366 L 167 366.5 L 163.5 367 L 163.5 366 Z " /><path fill="rgb(216,229,245)" stroke="rgb(216,229,245)" stroke-width="1" opacity="1" d="M 181.5 366 L 185 366.5 L 181.5 367 L 181.5 366 Z " /><path fill="rgb(216,229,245)" stroke="rgb(216,229,245)" stroke-width="1" opacity="1" d="M 271.5 367 L 270 369.5 L 269.5 371 L 269 369.5 L 271.5 367 Z " /><path fill="rgb(216,229,245)" stroke="rgb(216,229,245)" stroke-width="1" opacity="1" d="M 260.5 379 L 256.5 384 L 260.5 379 Z " /><path fill="rgb(216,229,245)" stroke="rgb(216,229,245)" stroke-width="1" opacity="1" d="M 89.5 380 L 93.5 385 L 89.5 380 Z " /><path fill="rgb(216,229,245)" stroke="rgb(216,229,245)" stroke-width="1" opacity="1" d="M 95.5 385 L 96.5 387 L 95.5 385 Z " /><path fill="rgb(216,229,245)" stroke="rgb(216,229,245)" stroke-width="1" opacity="1" d="M 99.5 388 L 102.5 392 L 99.5 388 Z " /><path fill="rgb(216,229,245)" stroke="rgb(216,229,245)" stroke-width="1" opacity="1" d="M 249.5 388 L 248.5 390 L 249.5 388 Z " /><path fill="rgb(216,229,245)" stroke="rgb(216,229,245)" stroke-width="1" opacity="1" d="M 246.5 390 L 245.5 392 L 246.5 390 Z " /><path fill="rgb(216,229,245)" stroke="rgb(216,229,245)" stroke-width="1" opacity="1" d="M 110.5 395 L 111.5 397 L 110.5 395 Z " /><path fill="rgb(216,229,245)" stroke="rgb(216,229,245)" stroke-width="1" opacity="1" d="M 114.5 398 L 117 399.5 L 115.5 399 L 114.5 398 Z " /><path fill="rgb(216,229,245)" stroke="rgb(216,229,245)" stroke-width="1" opacity="1" d="M 233.5 398 L 232.5 400 L 233.5 398 Z " /><path fill="rgb(216,229,245)" stroke="rgb(216,229,245)" stroke-width="1" opacity="1" d="M 126.5 403 L 129 404.5 L 127.5 404 L 126.5 403 Z " /><path fill="rgb(216,229,245)" stroke="rgb(216,229,245)" stroke-width="1" opacity="1" d="M 152.5 411 L 158 411.5 L 152.5 412 L 152.5 411 Z " /><path fill="rgb(216,229,245)" stroke="rgb(216,229,245)" stroke-width="1" opacity="1" d="M 191.5 411 L 197 411.5 L 191.5 412 L 191.5 411 Z " /><path fill="rgb(216,229,245)" stroke="rgb(216,229,245)" stroke-width="1" opacity="1" d="M 163.5 412 L 170 412.5 L 163.5 413 L 163.5 412 Z " /><path fill="rgb(216,229,245)" stroke="rgb(216,229,245)" stroke-width="1" opacity="1" d="M 179.5 412 L 186 412.5 L 179.5 413 L 179.5 412 Z " /><path fill="rgb(254,255,255)" stroke="rgb(254,255,255)" stroke-width="1" opacity="1" d="M 171.5 158 L 178 158.5 L 171.5 159 L 171.5 158 Z " /><path fill="rgb(254,255,255)" stroke="rgb(254,255,255)" stroke-width="1" opacity="1" d="M 120.5 170 L 119.5 172 L 120.5 170 Z " /><path fill="rgb(254,255,255)" stroke="rgb(254,255,255)" stroke-width="1" opacity="1" d="M 252.5 185 L 254.5 188 L 252.5 185 Z " /><path fill="rgb(254,255,255)" stroke="rgb(254,255,255)" stroke-width="1" opacity="1" d="M 94.5 186 L 93.5 188 L 94.5 186 Z " /><path fill="rgb(254,255,255)" stroke="rgb(254,255,255)" stroke-width="1" opacity="1" d="M 88.5 191 L 85.5 195 L 88.5 191 Z " /><path fill="rgb(254,255,255)" stroke="rgb(254,255,255)" stroke-width="1" opacity="1" d="M 260.5 192 L 263.5 196 L 260.5 192 Z " /><path fill="rgb(254,255,255)" stroke="rgb(254,255,255)" stroke-width="1" opacity="1" d="M 83.5 197 L 81.5 200 L 83.5 197 Z " /><path fill="rgb(254,255,255)" stroke="rgb(254,255,255)" stroke-width="1" opacity="1" d="M 75.5 206 L 74.5 208 L 75.5 206 Z " /><path fill="rgb(254,255,255)" stroke="rgb(254,255,255)" stroke-width="1" opacity="1" d="M 70.5 212 L 69.5 214 L 70.5 212 Z " /><path fill="rgb(254,255,255)" stroke="rgb(254,255,255)" stroke-width="1" opacity="1" d="M 224.5 221 L 225.5 223 L 224.5 221 Z " /><path fill="rgb(254,255,255)" stroke="rgb(254,255,255)" stroke-width="1" opacity="1" d="M 62.5 225 L 61.5 227 L 62.5 225 Z " /><path fill="rgb(254,255,255)" stroke="rgb(254,255,255)" stroke-width="1" opacity="1" d="M 229.5 225 L 234.5 231 L 229.5 225 Z " /><path fill="rgb(254,255,255)" stroke="rgb(254,255,255)" stroke-width="1" opacity="1" d="M 118.5 226 L 113.5 232 L 118.5 226 Z " /><path fill="rgb(254,255,255)" stroke="rgb(254,255,255)" stroke-width="1" opacity="1" d="M 237.5 234 L 238.5 236 L 237.5 234 Z " /><path fill="rgb(254,255,255)" stroke="rgb(254,255,255)" stroke-width="1" opacity="1" d="M 105.5 242 L 104.5 244 L 105.5 242 Z " /><path fill="rgb(254,255,255)" stroke="rgb(254,255,255)" stroke-width="1" opacity="1" d="M 47.5 282 L 48 288.5 L 47 288.5 L 47.5 282 Z " /><path fill="rgb(254,255,255)" stroke="rgb(254,255,255)" stroke-width="1" opacity="1" d="M 301.5 286 L 302 288.5 L 301 288.5 L 301.5 286 Z " /><path fill="rgb(254,255,255)" stroke="rgb(254,255,255)" stroke-width="1" opacity="1" d="M 238.5 335 L 237.5 337 L 238.5 335 Z " /><path fill="rgb(254,255,255)" stroke="rgb(254,255,255)" stroke-width="1" opacity="1" d="M 58.5 339 L 59.5 341 L 58.5 339 Z " /><path fill="rgb(254,255,255)" stroke="rgb(254,255,255)" stroke-width="1" opacity="1" d="M 115.5 341 L 118.5 345 L 115.5 341 Z " /><path fill="rgb(254,255,255)" stroke="rgb(254,255,255)" stroke-width="1" opacity="1" d="M 233.5 341 L 228.5 347 L 233.5 341 Z " /><path fill="rgb(254,255,255)" stroke="rgb(254,255,255)" stroke-width="1" opacity="1" d="M 217.5 354 L 216.5 356 L 217.5 354 Z " /><path fill="rgb(254,255,255)" stroke="rgb(254,255,255)" stroke-width="1" opacity="1" d="M 273.5 365 L 272.5 367 L 273.5 365 Z " /><path fill="rgb(254,255,255)" stroke="rgb(254,255,255)" stroke-width="1" opacity="1" d="M 80.5 371 L 83.5 375 L 80.5 371 Z " /><path fill="rgb(254,255,255)" stroke="rgb(254,255,255)" stroke-width="1" opacity="1" d="M 268.5 371 L 265.5 375 L 268.5 371 Z " /><path fill="rgb(254,255,255)" stroke="rgb(254,255,255)" stroke-width="1" opacity="1" d="M 263.5 375 L 260.5 379 L 263.5 375 Z " /><path fill="rgb(254,255,255)" stroke="rgb(254,255,255)" stroke-width="1" opacity="1" d="M 85.5 376 L 88.5 380 L 85.5 376 Z " /><path fill="rgb(254,255,255)" stroke="rgb(254,255,255)" stroke-width="1" opacity="1" d="M 97.5 386 L 98.5 388 L 97.5 386 Z " /><path fill="rgb(254,255,255)" stroke="rgb(254,255,255)" stroke-width="1" opacity="1" d="M 251.5 386 L 250.5 388 L 251.5 386 Z " /><path fill="rgb(254,255,255)" stroke="rgb(254,255,255)" stroke-width="1" opacity="1" d="M 170.5 412 L 173 412.5 L 170.5 413 L 170.5 412 Z " /><path fill="rgb(254,255,255)" stroke="rgb(254,255,255)" stroke-width="1" opacity="1" d="M 176.5 412 L 179 412.5 L 176.5 413 L 176.5 412 Z " /><path fill="rgb(74,133,209)" stroke="rgb(74,133,209)" stroke-width="1" opacity="1" d="M 23.5 0 L 436.5 0 Q 438 2.5 443.5 1 L 451.5 5 L 455 8.5 L 459 16.5 Q 457.5 22 460 23.5 L 460 436.5 Q 457.5 438 459 443.5 L 455 451.5 L 451.5 455 L 443.5 459 Q 438.7 457.7 437.5 460 L 173.5 460 L 172.5 459 L 150.5 458 L 138.5 455 L 131.5 455 Q 128.5 452 122.5 452 L 109.5 446 L 103.5 445 L 92.5 438 L 86.5 436 L 67 423 L 65.5 420 L 63.5 420 L 49 406.5 L 38.5 393 Q 36.3 393.8 37 391.5 L 24 373.5 L 22 367.5 L 14 354.5 L 14 350.5 L 5 328.5 L 5 321.5 L 1 303.5 L 1 286.5 L 0 285.5 L 0 23.5 Q 2.5 22 1 16.5 L 5 8.5 L 8.5 5 L 16.5 1 Q 22 2.5 23.5 0 Z M 224 47 L 228 66 L 234 83 L 235 92 L 242 112 L 244 125 L 252 149 L 254 162 L 260 179 L 261 188 L 263 192 L 263 194 L 261 192 L 255 187 L 252 183 L 247 181 L 236 173 L 216 164 L 186 158 L 164 158 Q 162 161 156 159 L 131 165 L 118 172 L 113 173 L 90 190 L 84 197 L 81 199 L 70 212 L 58 232 L 50 254 L 48 264 L 48 274 L 47 275 L 47 297 L 48 298 L 48 308 L 51 322 L 62 348 L 75 367 L 94 385 L 115 399 L 143 410 L 153 412 L 163 412 L 164 413 L 186 413 L 187 412 L 197 412 L 207 410 L 233 400 L 257 384 L 261 379 L 265 376 Q 279 363 288 345 L 296 327 L 302 297 L 302 287 L 303 286 L 349 286 L 351 275 L 359 250 L 359 245 L 366 225 L 368 212 L 374 195 L 377 179 L 385 154 L 385 149 L 393 125 L 395 112 L 402 92 L 404 79 L 409 66 L 413 49 L 413 47 L 368 47 L 366 49 L 359 72 L 357 85 L 350 105 L 348 118 L 342 135 L 339 151 L 333 168 L 331 181 L 324 201 L 322 214 L 319 223 L 315 214 L 313 201 L 306 181 L 304 168 L 298 151 L 295 135 L 289 118 L 287 105 L 280 85 L 278 72 L 271 49 L 270 47 L 224 47 Z " /><path fill="rgb(74,133,209)" stroke="rgb(74,133,209)" stroke-width="1" opacity="1" d="M 166.5 205 L 181.5 205 L 198.5 208 Q 213.8 213.2 225 222.5 L 226.5 225 L 234 230.5 L 236.5 235 L 239 236.5 L 249 253.5 L 252 261.5 L 255 278.5 L 255 292.5 L 251 313.5 L 243 329.5 L 228.5 346 L 213.5 357 L 201.5 362 L 188.5 366 L 167.5 367 L 166.5 366 L 155.5 365 L 135.5 357 L 123.5 349 L 111 336.5 L 104 326.5 L 95 304.5 L 94 293.5 L 93 292.5 L 93 278.5 L 96 263.5 L 104 244.5 L 120.5 225 L 130.5 217 L 146.5 209 L 166.5 205 Z " /><path fill="rgb(255,255,255)" stroke="rgb(255,255,255)" stroke-width="1" opacity="1" d="M 225 47 L 269.5 47 L 270 49.5 L 277 70.5 L 279 83.5 L 286 103.5 L 288 116.5 L 296 140.5 L 298 153.5 L 303 166.5 L 305 173.5 L 305 179.5 L 313 203.5 L 315 216.5 L 318.5 225 L 322 216.5 L 324 203.5 L 332 179.5 L 332 173.5 L 339 153.5 L 341 140.5 L 349 116.5 L 351 103.5 L 358 83.5 L 360 70.5 L 367 47 L 411.5 47 L 412 48.5 Q 409.2 50.2 411 56.5 L 409 59.5 L 402 83.5 L 402 89.5 L 400 92.5 L 396 109.5 L 394 112.5 L 393 122.5 L 384 149.5 L 384 155.5 L 375 182.5 L 375 188.5 L 367 212.5 L 367 218.5 L 361 235.5 L 360 242.5 L 358 245.5 L 358 251.5 Q 353 262 351 275.5 L 349 278.5 L 349 286 L 301.5 286 L 301 286.5 L 301 299.5 L 300 300.5 L 299 311.5 L 296 319.5 L 296 324.5 L 287 342.5 L 287 345.5 L 276 362.5 L 264.5 375 L 260 378.5 L 256.5 383 L 232.5 399 L 213.5 407 L 199.5 411 L 189.5 411 L 188.5 412 Q 179 410.5 173.5 413 L 172.5 412 L 149.5 411 L 141.5 409 L 127.5 403 L 121.5 402 L 102 390.5 Q 102.8 388.3 100.5 389 Q 86.3 379.7 76 366.5 L 68 356.5 L 66 350.5 L 58 338.5 L 57 332.5 L 51 318.5 L 49 311.5 L 49 300.5 L 48 299.5 L 48 270.5 L 49 269.5 L 50 256.5 L 58 233.5 L 73 208 L 76 206.5 L 76 204.5 L 80.5 200 L 84 197.5 L 89.5 191 L 112.5 174 L 117.5 173 L 135.5 164 L 140.5 164 L 148.5 161 L 153.5 161 L 159.5 159 L 189.5 159 L 207.5 164 L 213.5 164 L 243 178 Q 241.9 180.7 244.5 180 L 252 184 L 254.5 188 L 260 191 L 263.5 196 L 264 192.5 L 261 185.5 L 259 172.5 L 253 155.5 L 253 149.5 L 244 122.5 L 244 116.5 L 238 99.5 L 237 92.5 L 235 89.5 L 235 83.5 L 228 59.5 L 226 56.5 Q 226.9 49.7 225 47 Z M 163 205 L 157 207 L 151 207 L 141 211 L 134 216 L 131 216 L 120 225 L 113 233 L 110 234 L 110 237 L 101 249 L 101 252 L 96 262 L 93 274 L 93 298 L 94 303 L 97 313 L 101 320 L 101 323 Q 104 330 110 335 L 110 337 L 131 355 L 148 363 L 163 367 L 187 367 L 199 364 L 217 356 L 224 350 Q 227 351 226 349 L 229 347 L 243 331 Q 244 324 248 322 L 253 310 L 253 304 L 255 298 L 255 274 Q 252 270 253 262 L 244 243 L 239 236 L 237 234 L 235 231 L 230 225 L 228 225 L 226 223 Q 214 213 199 207 Q 191 208 187 205 L 163 205 Z " /></svg>