<svg version="1.1" id="Layer_1" xmlns="http://www.w3.org/2000/svg" xmlns:xlink="http://www.w3.org/1999/xlink" x="0px" y="0px"
	 width="100%" viewBox="0 0 460 460" enable-background="new 0 0 460 460" xml:space="preserve">
<path fill="#4A85D1" opacity="1.000000" stroke="none" 
	d="
M0.999996,312.000000 
	C1.000000,213.310699 1.000000,114.621391 1.284864,15.742530 
	C4.606446,9.820549 8.171095,4.620324 14.679854,2.302046 
	C14.911738,2.219454 14.898824,1.449565 15.000000,1.000000 
	C158.689316,1.000000 302.378632,1.000000 446.251862,1.281508 
	C452.416504,4.600024 457.440247,8.590660 459.991760,15.079137 
	C460.027771,15.170753 460.650909,15.031500 461.000000,15.000000 
	C461.000000,158.689316 461.000000,302.378632 460.718750,446.251465 
	C457.391602,452.409149 453.401917,457.435883 446.916565,459.991821 
	C446.825989,460.027496 446.967072,460.650909 447.000000,461.000000 
	C348.310699,461.000000 249.621384,461.000000 150.712814,460.635742 
	C149.655533,459.850555 148.859848,459.224030 147.972763,459.041412 
	C141.266449,457.660828 134.427307,456.776611 127.855598,454.932312 
	C121.182381,453.059540 114.644211,450.552124 108.271103,447.802887 
	C100.551575,444.472778 92.619003,441.297089 85.587570,436.792023 
	C75.370346,430.245819 65.636124,423.061279 56.537689,414.734314 
	C48.044098,406.960876 40.597431,398.552582 33.975151,389.416199 
	C25.613169,377.879608 18.546438,365.572479 13.347676,352.097809 
	C9.091903,341.067291 5.260726,330.111938 3.855909,318.332703 
	C3.594343,316.139465 1.986512,314.106781 0.999996,312.000000 
M341.207825,145.598206 
	C334.059113,171.693329 326.910400,197.788437 319.381012,225.273239 
	C316.644073,214.831482 314.329163,205.833496 311.924652,196.859512 
	C306.292572,175.839706 300.656555,154.820801 294.937469,133.824585 
	C293.102325,127.087349 290.888184,120.453506 289.044250,113.718483 
	C283.341339,92.888664 277.779175,72.020096 271.978485,51.217869 
	C271.616882,49.921261 269.686646,48.161640 268.463257,48.143230 
	C254.153625,47.927891 239.839615,48.005199 224.824936,48.005199 
	C237.908310,96.442719 250.844513,144.335434 263.780731,192.228165 
	C263.406830,192.522156 263.032928,192.816147 262.659027,193.110138 
	C227.712418,163.662704 188.403351,151.801880 143.541901,163.468246 
	C98.780342,175.108627 68.584770,203.527023 54.288361,246.917816 
	C31.821209,315.107513 68.146652,389.322510 142.472717,409.852692 
	C178.193207,419.719299 213.136185,414.505463 244.403534,393.870972 
	C282.338318,368.836395 301.322571,332.606110 303.204163,286.894806 
	C319.013214,286.894806 334.418121,286.894806 349.528351,286.894806 
	C371.137939,207.064041 392.596802,127.790123 414.194458,48.003456 
	C399.005768,48.003456 384.850586,47.926792 370.699554,48.134808 
	C369.434357,48.153408 367.419678,49.797901 367.061798,51.058788 
	C361.436646,70.876366 356.007965,90.749901 350.574097,110.621513 
	C347.463165,121.998299 344.424225,133.394775 341.207825,145.598206 
z"/>
<path fill="#000000" opacity="1.000000" stroke="none" 
	d="
M0.999996,312.468658 
	C1.986512,314.106781 3.594343,316.139465 3.855909,318.332703 
	C5.260726,330.111938 9.091903,341.067291 13.347676,352.097809 
	C18.546438,365.572479 25.613169,377.879608 33.975151,389.416199 
	C40.597431,398.552582 48.044098,406.960876 56.537689,414.734314 
	C65.636124,423.061279 75.370346,430.245819 85.587570,436.792023 
	C92.619003,441.297089 100.551575,444.472778 108.271103,447.802887 
	C114.644211,450.552124 121.182381,453.059540 127.855598,454.932312 
	C134.427307,456.776611 141.266449,457.660828 147.972763,459.041412 
	C148.859848,459.224030 149.655533,459.850555 150.246780,460.635742 
	C100.406342,461.000000 50.812683,461.000000 1.000000,461.000000 
	C1.000000,411.645996 1.000000,362.291656 0.999996,312.468658 
z"/>
<path fill="#000101" opacity="1.000000" stroke="none" 
	d="
M14.525872,1.000000 
	C14.898824,1.449565 14.911738,2.219454 14.679854,2.302046 
	C8.171095,4.620324 4.606446,9.820549 1.284864,15.276488 
	C1.000000,10.409401 1.000000,5.818802 1.000000,1.000000 
	C5.348905,1.000000 9.700325,1.000000 14.525872,1.000000 
z"/>
<path fill="#020305" opacity="1.000000" stroke="none" 
	d="
M461.000000,14.525872 
	C460.650909,15.031500 460.027771,15.170753 459.991760,15.079137 
	C457.440247,8.590660 452.416504,4.600024 446.717896,1.281508 
	C451.590607,1.000000 456.181183,1.000000 461.000000,1.000000 
	C461.000000,5.348905 461.000000,9.700325 461.000000,14.525872 
z"/>
<path fill="#020406" opacity="1.000000" stroke="none" 
	d="
M447.474121,461.000000 
	C446.967072,460.650909 446.825989,460.027496 446.916565,459.991821 
	C453.401917,457.435883 457.391602,452.409149 460.718750,446.717499 
	C461.000000,451.590607 461.000000,456.181183 461.000000,461.000000 
	C456.651093,461.000000 452.299652,461.000000 447.474121,461.000000 
z"/>
<path fill="#FEFEFF" opacity="1.000000" stroke="none" 
	d="
M341.280365,145.190308 
	C344.424225,133.394775 347.463165,121.998299 350.574097,110.621513 
	C356.007965,90.749901 361.436646,70.876366 367.061798,51.058788 
	C367.419678,49.797901 369.434357,48.153408 370.699554,48.134808 
	C384.850586,47.926792 399.005768,48.003456 414.194458,48.003456 
	C392.596802,127.790123 371.137939,207.064041 349.528351,286.894806 
	C334.418121,286.894806 319.013214,286.894806 303.204163,286.894806 
	C301.322571,332.606110 282.338318,368.836395 244.403534,393.870972 
	C213.136185,414.505463 178.193207,419.719299 142.472717,409.852692 
	C68.146652,389.322510 31.821209,315.107513 54.288361,246.917816 
	C68.584770,203.527023 98.780342,175.108627 143.541901,163.468246 
	C188.403351,151.801880 227.712418,163.662704 262.659027,193.110138 
	C263.032928,192.816147 263.406830,192.522156 263.780731,192.228165 
	C250.844513,144.335434 237.908310,96.442719 224.824936,48.005199 
	C239.839615,48.005199 254.153625,47.927891 268.463257,48.143230 
	C269.686646,48.161640 271.616882,49.921261 271.978485,51.217869 
	C277.779175,72.020096 283.341339,92.888664 289.044250,113.718483 
	C290.888184,120.453506 293.102325,127.087349 294.937469,133.824585 
	C300.656555,154.820801 306.292572,175.839706 311.924652,196.859512 
	C314.329163,205.833496 316.644073,214.831482 319.381012,225.273239 
	C326.910400,197.788437 334.059113,171.693329 341.280365,145.190308 
M141.649536,213.066147 
	C137.978806,214.971542 133.911392,216.371292 130.713821,218.879807 
	C122.099983,225.637451 113.925835,232.792969 107.854156,242.245636 
	C99.655312,255.009933 94.925735,268.749847 94.089981,283.794830 
	C93.383270,296.516937 96.809937,308.356903 101.769104,320.038727 
	C106.772995,331.825867 114.564034,341.416351 124.109055,349.312897 
	C130.225235,354.372803 137.818481,357.887207 145.157669,361.186768 
	C174.697983,374.467804 201.997513,368.153687 226.416046,349.170471 
	C241.944885,337.098206 251.706863,320.633667 254.762527,300.511902 
	C258.950989,272.930573 251.769608,248.941162 232.273682,229.274475 
	C220.288361,217.184219 205.627869,209.213104 188.217773,207.031189 
	C172.376434,205.045868 157.046921,206.146683 141.649536,213.066147 
z"/>
<path fill="#4B85D1" opacity="1.000000" stroke="none" 
	d="
M142.000458,212.931458 
	C157.046921,206.146683 172.376434,205.045868 188.217773,207.031189 
	C205.627869,209.213104 220.288361,217.184219 232.273682,229.274475 
	C251.769608,248.941162 258.950989,272.930573 254.762527,300.511902 
	C251.706863,320.633667 241.944885,337.098206 226.416046,349.170471 
	C201.997513,368.153687 174.697983,374.467804 145.157669,361.186768 
	C137.818481,357.887207 130.225235,354.372803 124.109055,349.312897 
	C114.564034,341.416351 106.772995,331.825867 101.769104,320.038727 
	C96.809937,308.356903 93.383270,296.516937 94.089981,283.794830 
	C94.925735,268.749847 99.655312,255.009933 107.854156,242.245636 
	C113.925835,232.792969 122.099983,225.637451 130.713821,218.879807 
	C133.911392,216.371292 137.978806,214.971542 142.000458,212.931458 
z"/>
</svg>